<?xml version="1.0" encoding="UTF-8"?>
<svg xmlns="http://www.w3.org/2000/svg" viewBox="0 0 809 184" preserveAspectRatio="xMinYMin meet" width="200" height="45.49">
  <path d="M 149 142 L 154 155 L 162 164 L 168 167 L 177 168 L 188 164 L 195 157 L 199 150 L 202 138 L 201 137 L 149 137 Z M 34 100 L 35 102 L 81 102 L 82 101 L 82 96 L 79 86 L 74 79 L 66 75 L 53 75 L 42 81 L 38 87 Z M 452 67 L 451 66 L 450 67 L 419 67 L 418 66 L 410 66 L 409 67 L 410 71 L 419 72 L 425 77 L 425 85 L 403 140 L 398 148 L 395 146 L 392 140 L 392 138 L 387 129 L 387 127 L 366 81 L 367 77 L 370 74 L 374 72 L 379 72 L 380 67 L 325 67 L 324 68 L 325 71 L 335 74 L 341 80 L 347 92 L 348 97 L 337 119 L 333 130 L 322 150 L 320 148 L 312 131 L 312 129 L 290 81 L 290 77 L 294 73 L 305 71 L 305 67 L 247 67 L 247 72 L 256 73 L 262 78 L 284 122 L 284 124 L 310 177 L 310 179 L 314 180 L 318 179 L 326 159 L 341 129 L 341 127 L 352 107 L 360 122 L 360 124 L 366 135 L 366 137 L 385 178 L 387 180 L 391 180 L 393 179 L 435 82 L 444 73 L 452 71 Z M 660 67 L 654 64 L 645 64 L 638 67 L 626 78 L 618 90 L 616 89 L 616 65 L 614 64 L 600 70 L 577 76 L 574 78 L 575 82 L 589 83 L 593 87 L 594 90 L 594 165 L 587 172 L 576 173 L 575 177 L 576 178 L 637 178 L 638 177 L 637 173 L 628 173 L 622 171 L 618 167 L 617 164 L 617 102 L 625 89 L 633 83 L 641 84 L 650 93 L 660 92 L 666 84 L 665 74 Z M 469 74 L 461 82 L 458 89 L 458 97 L 463 103 L 473 104 L 479 100 L 480 98 L 479 85 L 481 80 L 487 74 L 495 71 L 505 71 L 512 74 L 520 84 L 522 91 L 522 107 L 520 109 L 510 113 L 481 122 L 465 131 L 458 138 L 454 144 L 452 152 L 453 163 L 458 171 L 464 176 L 477 181 L 490 181 L 498 179 L 508 174 L 522 163 L 524 165 L 526 172 L 532 178 L 540 181 L 549 180 L 561 173 L 568 166 L 569 164 L 568 162 L 566 162 L 559 167 L 554 168 L 551 167 L 546 162 L 545 159 L 545 94 L 543 86 L 539 78 L 529 69 L 523 66 L 512 63 L 497 63 L 492 65 L 488 65 Z M 521 116 L 522 117 L 522 153 L 514 162 L 504 167 L 491 168 L 484 165 L 478 159 L 476 154 L 476 144 L 480 136 L 486 130 L 495 125 Z M 0 56 L 0 183 L 237 183 L 237 56 Z M 163 65 L 170 65 L 171 64 L 187 65 L 194 67 L 207 74 L 217 83 L 223 92 L 227 101 L 230 113 L 230 132 L 227 143 L 220 156 L 206 170 L 194 176 L 183 179 L 162 179 L 152 176 L 144 172 L 130 159 L 124 149 L 121 140 L 120 128 L 122 126 L 201 126 L 202 125 L 202 116 L 200 107 L 193 94 L 184 86 L 172 81 L 159 81 L 146 86 L 135 96 L 131 103 L 128 103 L 122 100 L 122 97 L 125 91 L 137 77 L 150 69 Z M 54 64 L 76 65 L 93 73 L 101 81 L 105 87 L 110 102 L 110 111 L 109 112 L 34 112 L 33 113 L 35 130 L 40 142 L 49 152 L 55 156 L 65 159 L 78 159 L 91 154 L 102 143 L 104 143 L 110 147 L 109 151 L 104 158 L 92 169 L 79 176 L 68 179 L 47 178 L 41 176 L 29 169 L 20 160 L 15 153 L 9 139 L 8 129 L 7 128 L 8 108 L 11 99 L 18 86 L 33 72 L 43 67 Z M 784 3 L 781 3 L 776 6 L 760 11 L 743 15 L 744 19 L 757 20 L 763 27 L 763 72 L 762 73 L 749 66 L 738 63 L 728 63 L 727 64 L 717 65 L 708 68 L 695 76 L 686 85 L 678 98 L 674 109 L 673 119 L 672 120 L 672 131 L 673 132 L 674 142 L 676 148 L 685 164 L 695 173 L 703 178 L 713 181 L 733 180 L 749 173 L 762 162 L 764 163 L 764 180 L 765 181 L 781 177 L 788 174 L 801 172 L 805 170 L 805 167 L 792 166 L 787 161 L 786 158 L 786 4 Z M 731 71 L 741 72 L 748 75 L 757 83 L 763 92 L 763 150 L 760 155 L 751 163 L 735 168 L 724 166 L 714 160 L 709 155 L 702 144 L 697 127 L 697 111 L 699 101 L 703 91 L 707 85 L 715 77 L 722 73 Z" fill="#000000" fill-rule="evenodd"/>
</svg>
